<?xml version="1.0" encoding="utf-8"?><svg xml:space="preserve" viewBox="0 0 100 100" y="0" x="0" xmlns="http://www.w3.org/2000/svg" id="圖層_1" version="1.1" width="200px" height="200px" xmlns:xlink="http://www.w3.org/1999/xlink" style="width:100%;height:100%;background-size:initial;background-repeat-y:initial;background-repeat-x:initial;background-position-y:initial;background-position-x:initial;background-origin:initial;background-color:initial;background-clip:initial;background-attachment:initial;animation-play-state:paused" ><g class="ldl-scale" style="transform-origin:50% 50%;transform:rotate(0deg) scale(0.8, 0.8);animation-play-state:paused" ><linearGradient y2="74.958" x2="68.182" y1="33.672" x1="31.167" gradientUnits="userSpaceOnUse" id="SVGID_1_" style="animation-play-state:paused" ><stop stop-color="#e0e0e0" offset="0" style="stop-color:rgb(224, 224, 224);animation-play-state:paused" ></stop>
<stop stop-color="#ccc" offset="1" style="stop-color:rgb(204, 204, 204);animation-play-state:paused" ></stop></linearGradient>
<circle fill="url(#SVGID_1_)" r="31.89" cy="53.844" cx="49.253" style="animation-play-state:paused" ></circle>
<path d="M49.253 21.954v9.894" stroke-miterlimit="10" stroke-linecap="round" stroke-width="3.5" stroke="#333" fill="none" style="stroke:rgb(51, 51, 51);animation-play-state:paused" ></path>
<path d="M71.802 31.294l-6.996 6.997" stroke-miterlimit="10" stroke-linecap="round" stroke-width="3.5" stroke="#333" fill="none" style="stroke:rgb(51, 51, 51);animation-play-state:paused" ></path>
<path d="M81.143 53.844h-9.895" stroke-miterlimit="10" stroke-linecap="round" stroke-width="3.5" stroke="#333" fill="none" style="stroke:rgb(51, 51, 51);animation-play-state:paused" ></path>
<path d="M71.802 76.394l-6.996-6.997" stroke-miterlimit="10" stroke-linecap="round" stroke-width="3.5" stroke="#333" fill="none" style="stroke:rgb(51, 51, 51);animation-play-state:paused" ></path>
<path d="M49.253 85.734V75.84" stroke-miterlimit="10" stroke-linecap="round" stroke-width="3.5" stroke="#333" fill="none" style="stroke:rgb(51, 51, 51);animation-play-state:paused" ></path>
<path d="M26.703 76.394l6.996-6.997" stroke-miterlimit="10" stroke-linecap="round" stroke-width="3.5" stroke="#333" fill="none" style="stroke:rgb(51, 51, 51);animation-play-state:paused" ></path>
<path d="M17.362 53.844h9.895" stroke-miterlimit="10" stroke-linecap="round" stroke-width="3.5" stroke="#333" fill="none" style="stroke:rgb(51, 51, 51);animation-play-state:paused" ></path>
<path d="M26.703 31.294l6.996 6.997" stroke-miterlimit="10" stroke-linecap="round" stroke-width="3.5" stroke="#333" fill="none" style="stroke:rgb(51, 51, 51);animation-play-state:paused" ></path>
<path d="M48.973 53.564h20.441" stroke-miterlimit="10" stroke-linecap="round" stroke-width="3.5" stroke="#e15b64" fill="none" style="stroke:rgb(225, 91, 100);animation-play-state:paused" ></path>
<path stroke-miterlimit="10" stroke-linecap="round" stroke-width="3.5" stroke="#333" fill="none" d="M41.565 23.876v-7.688A7.688 7.688 0 0 1 49.253 8.5h0a7.688 7.688 0 0 1 7.688 7.688v7.688" style="stroke:rgb(51, 51, 51);animation-play-state:paused" ></path>
<path stroke-miterlimit="10" stroke-width="3.5" stroke="#333" fill="#fff" d="M49.253 53.844h0a2.501 2.501 0 0 1-2.501-2.501V34.349a2.501 2.501 0 0 1 2.501-2.501h0a2.501 2.501 0 0 1 2.501 2.501v16.994a2.502 2.502 0 0 1-2.501 2.501z" style="stroke:rgb(51, 51, 51);fill:rgb(255, 255, 255);animation-play-state:paused" ></path>
<path opacity=".2" d="M49.253 21.954c-15.24 0-27.975 10.693-31.132 24.984a41.152 41.152 0 0 1 1.978-4.599c7.93-15.726 24.245-23.49 36.441-17.34 12.196 6.15 15.655 23.884 7.725 39.61-5.704 11.311-15.747 18.503-25.474 19.36a31.837 31.837 0 0 0 10.462 1.765c17.612 0 31.89-14.278 31.89-31.89 0-17.613-14.278-31.89-31.89-31.89z" style="animation-play-state:paused" ></path>
<path stroke-miterlimit="10" stroke-width="3.5" stroke="#333" fill="#fff" d="M49.253 53.844h0a2.501 2.501 0 0 1 2.501-2.501h9.307a2.501 2.501 0 0 1 2.501 2.501v0a2.501 2.501 0 0 1-2.501 2.501h-9.307a2.501 2.501 0 0 1-2.501-2.501z" style="stroke:rgb(51, 51, 51);fill:rgb(255, 255, 255);animation-play-state:paused" ></path>
<path stroke-miterlimit="10" stroke-linecap="round" stroke-width="3.5" stroke="#fff" fill="none" d="M32.612 40.459a21.456 21.456 0 0 1 6.462-5.393" style="stroke:rgb(255, 255, 255);animation-play-state:paused" ></path>
<path stroke-miterlimit="10" stroke-linecap="round" stroke-width="3.5" stroke="#fff" fill="none" d="M29.269 46.297c.18-.477.377-.945.589-1.405" style="stroke:rgb(255, 255, 255);animation-play-state:paused" ></path>
<path fill="#f5e6c8" opacity=".3" d="M75.377 53.844c0-3.564-.719-6.962-2.017-10.06L39.192 77.951a25.975 25.975 0 0 0 10.06 2.017c.105 0 .208-.007.312-.008l25.804-25.804c.002-.104.009-.207.009-.312z" style="fill:rgb(245, 230, 200);animation-play-state:paused" ></path>
<path stroke-miterlimit="10" stroke-width="3.5" stroke="#333" fill="#e15b64" d="M49.253 90.005c-19.939 0-36.161-16.222-36.161-36.161s16.222-36.161 36.161-36.161 36.161 16.222 36.161 36.161-16.222 36.161-36.161 36.161zm0-63.78c-15.229 0-27.619 12.39-27.619 27.619s12.39 27.619 27.619 27.619 27.619-12.39 27.619-27.619-12.39-27.619-27.619-27.619z" style="stroke:rgb(51, 51, 51);fill:rgb(225, 91, 100);animation-play-state:paused" ></path>
<path opacity=".2" d="M75.377 53.844c0 14.405-11.719 26.124-26.124 26.124V91.5c20.764 0 37.656-16.893 37.656-37.656S70.016 16.188 49.253 16.188V27.72c14.405-.001 26.124 11.719 26.124 26.124z" style="animation-play-state:paused" ></path>
<circle stroke-miterlimit="10" stroke-width="3.5" stroke="#333" fill="#f8b26a" r="5.125" cy="53.844" cx="49.253" style="stroke:rgb(51, 51, 51);fill:rgb(248, 178, 106);animation-play-state:paused" ></circle>
<path fill="#f5e6c8" opacity=".3" d="M66.224 34.007L29.416 70.815a26.319 26.319 0 0 0 2.225 2.305L68.53 36.231a26.608 26.608 0 0 0-2.306-2.224z" style="fill:rgb(245, 230, 200);animation-play-state:paused" ></path>
<path fill="#f5e6c8" opacity=".3" d="M70.298 38.389l-36.5 36.501a26.176 26.176 0 0 0 2.756 1.774l35.518-35.518a26.19 26.19 0 0 0-1.774-2.757z" style="fill:rgb(245, 230, 200);animation-play-state:paused" ></path>
<metadata xmlns:d="https://loading.io/stock/" style="animation-play-state:paused" ><d:name style="animation-play-state:paused" >clock</d:name>
<d:tags style="animation-play-state:paused" >clock,time,second</d:tags>
<d:license style="animation-play-state:paused" >by</d:license>
<d:slug style="animation-play-state:paused" >14x88</d:slug></metadata></g><!-- generated by https://loading.io/ --></svg>